PathFileType	4	(X/Y/Z)	/Users/niels/Desktop/University/Third Semester/Perception and Action/Exam/Gymnastics Motion Tracking/Code for Gym Tracking/Analyzed Data/Webcam_Backflip/id5_5_trajectory_Sports2D/id5_5_trajectory_Sports2D_px_person00.trc
DataRate	CameraRate	NumFrames	NumMarkers	Units	OrigDataRate	OrigDataStartFrame	OrigNumFrames
29.81132075471698	29.81132075471698	12	22	m	29.81132075471698	119	159
Frame#	Time	Hip			RHip			RKnee			RAnkle			RBigToe			RSmallToe			RHeel			LHip			LKnee			LAnkle			LBigToe			LSmallToe			LHeel			Neck			Head			Nose			RShoulder			RElbow			RWrist			LShoulder			LElbow			LWrist		
		X1	Y1	Z1	X2	Y2	Z2	X3	Y3	Z3	X4	Y4	Z4	X5	Y5	Z5	X6	Y6	Z6	X7	Y7	Z7	X8	Y8	Z8	X9	Y9	Z9	X10	Y10	Z10	X11	Y11	Z11	X12	Y12	Z12	X13	Y13	Z13	X14	Y14	Z14	X15	Y15	Z15	X16	Y16	Z16	X17	Y17	Z17	X18	Y18	Z18	X19	Y19	Z19	X20	Y20	Z20	X21	Y21	Z21	X22	Y22	Z22
119	3.991772151898734	0.8306516545179746	-0.5907438578944098	0.0	0.812452545365256	-0.5891797710656772	0.0	0.8246194541724333	-0.6898756926446711	0.0	0.823023627527136	-0.7997167288369096	0.0	0.8475281226466772	-0.8169209620335157	0.0	0.8347078357843362	-0.8194508200610261	0.0	0.8183937069323645	-0.812862088467807	0.0	0.8474532640784279	-0.5879293047490358	0.0	0.8334209638661523	-0.6871288294758112	0.0	0.7853108152566491	-0.7627422451623986	0.0	0.8112643174312111	-0.7980424958943624	0.0	0.8122407482999824	-0.7920546537138371	0.0	0.7733792625999092	-0.7738541645980765	0.0	0.8258831200719001	-0.4381725693928097	0.0	0.8275388118066243	-0.3744541469554603	0.0	0.833990938738096	-0.4090322222505841	0.0	0.791249166466148	-0.4674427091318164	0.0	0.7726042119462739	-0.5356280311789692	0.0	0.7659815000682978	-0.6020415256732314	0.0	0.8579300773177614	-0.453201665583157	0.0	0.8581298176620614	-0.5212712548520505	0.0	0.8734213292787346	-0.5780040521693101	0.0
120	4.025316455696203	0.8338520732421387	-0.5879610822821537	0.0	0.8144065661274195	-0.5871430104315202	0.0	0.8241329792746368	-0.6886361508733192	0.0	0.8233269419848094	-0.7976246239666311	0.0	0.8465518336256759	-0.8159862977794328	0.0	0.8331939402413108	-0.818355522569273	0.0	0.8186270673189969	-0.8112701488326828	0.0	0.8514006890001103	-0.5853466537499389	0.0	0.8420906434194882	-0.6854575131116214	0.0	0.7889339144190572	-0.755181831753526	0.0	0.810659466202199	-0.7946659454381217	0.0	0.8127451303083202	-0.7874360911734742	0.0	0.7757086427677417	-0.7653278021719941	0.0	0.8261191137247886	-0.4354345537796986	0.0	0.8270464994816307	-0.3707144885136682	0.0	0.8331978159891775	-0.40585137871249766	0.0	0.790713350130139	-0.46481362304617396	0.0	0.7727448891748429	-0.5332661846623857	0.0	0.7659513889847881	-0.5995584510082386	0.0	0.8597182144876636	-0.4493981415511755	0.0	0.8599481082649495	-0.5178136059146594	0.0	0.8718328204881568	-0.576459856599415	0.0
121	4.058860759493671	0.8365787287611093	-0.5845604343705478	0.0	0.8162624732417314	-0.5847672469241478	0.0	0.8244354531318616	-0.6866737842619973	0.0	0.8237059099966105	-0.794474944084169	0.0	0.845855104905424	-0.8141650629391697	0.0	0.8322350603238597	-0.8164432176780811	0.0	0.8185189424152501	-0.8087975838044106	0.0	0.8547806291081501	-0.5823759214693797	0.0	0.8499879764903044	-0.6829729226649419	0.0	0.7940297774104391	-0.7474642876943459	0.0	0.8123560429110521	-0.7908771177320754	0.0	0.8151373381045346	-0.7824554727464708	0.0	0.7795907494591394	-0.7569505893646203	0.0	0.8264873963517091	-0.4322030638474538	0.0	0.8268890279817853	-0.366368734894392	0.0	0.8327628863705183	-0.4023299723396545	0.0	0.7902071121546388	-0.46167428004860844	0.0	0.7731621814754962	-0.5301604513864254	0.0	0.76703248657394	-0.596533849695268	0.0	0.8613635417119053	-0.44534039881858756	0.0	0.8628066281531983	-0.5136529129604276	0.0	0.8733965712348726	-0.5732646092309078	0.0
122	4.092405063291139	0.8387460340829659	-0.5809959187026232	0.0	0.8179654769271735	-0.5822297838475173	0.0	0.8253779423833393	-0.6842589334904989	0.0	0.8240042491869148	-0.7907717372441779	0.0	0.8457132987314485	-0.8117916393560928	0.0	0.832051804905325	-0.814023367525364	0.0	0.8181281959688387	-0.805717766356835	0.0	0.8574953570918574	-0.5792757342087805	0.0	0.856879666383518	-0.6800375656098634	0.0	0.8007561779823663	-0.7408357982409597	0.0	0.8171257821531721	-0.7870008335209792	0.0	0.8201873449476768	-0.7776927268284848	0.0	0.7855427513611816	-0.7501079855201391	0.0	0.8270734116644359	-0.42862332534392217	0.0	0.8270510242087901	-0.36181080102405133	0.0	0.8327056493391565	-0.3986833783327541	0.0	0.7898670893870123	-0.45841086474467935	0.0	0.7738476003632658	-0.5266851453226964	0.0	0.7690301532023384	-0.5933450552310858	0.0	0.8628948346472864	-0.44131353289364667	0.0	0.8665478003431256	-0.5092356888964391	0.0	0.8780952635778291	-0.5687525767931034	0.0
123	4.125949367088608	0.8404224725534689	-0.5777616668527802	0.0	0.8195032009346362	-0.5798189124403352	0.0	0.8266301873928336	-0.681776137252892	0.0	0.8241197361542836	-0.7870468359023223	0.0	0.846195918359896	-0.8092514801254437	0.0	0.832614551007549	-0.8114204607807602	0.0	0.8176053609133362	-0.8023302310192942	0.0	0.8596830669664397	-0.5763944702019281	0.0	0.8628620124453619	-0.6771089454242578	0.0	0.8090341744529534	-0.7364067038669893	0.0	0.8251658899459388	-0.7834641741260235	0.0	0.828311045841151	-0.7737544449834397	0.0	0.793845274671279	-0.7459889397975433	0.0	0.827909387000682	-0.4249394060294779	0.0	0.8274934571473892	-0.35743072411602084	0.0	0.8329481675399838	-0.39516656565308483	0.0	0.7898298154920466	-0.455300942679566	0.0	0.774775955830333	-0.5232778383949858	0.0	0.771752242075245	-0.590324992936154	0.0	0.8643568227737534	-0.43757290958570766	0.0	0.8708151411241402	-0.5049636066660326	0.0	0.8853346251275268	-0.5635755742370134	0.0
124	4.159493670886076	0.8417722578568471	-0.5752809439011292	0.0	0.8209147327177204	-0.5778677011688891	0.0	0.8278377640002711	-0.6796298584295284	0.0	0.8240482280889392	-0.7838047949806926	0.0	0.8470541439278008	-0.8068708205069854	0.0	0.8335894966166136	-0.8089135064118235	0.0	0.8171604390853978	-0.7989997904712003	0.0	0.8616039791333922	-0.574067096042355	0.0	0.8681901222998728	-0.6745557742104773	0.0	0.8186178654755418	-0.7348387073056802	0.0	0.8359134922936586	-0.7808205589184823	0.0	0.8392388418809759	-0.7712357187880324	0.0	0.8043343324270685	-0.7451970680661145	0.0	0.8289774398675931	-0.4215276852894067	0.0	0.8281767554820508	-0.35356137244800867	0.0	0.8333980010840755	-0.39211319906664355	0.0	0.7901770553346921	-0.4525450240765439	0.0	0.7759643858871207	-0.520317500022205	0.0	0.7750733633037031	-0.5877419247865004	0.0	0.8658056447669773	-0.4343544177309292	0.0	0.8752483726364807	-0.5011455590513475	0.0	0.8942160247513593	-0.5584416783999412	0.0
125	4.193037974683544	0.8429842746696615	-0.5738065954203909	0.0	0.8222584631285251	-0.5766424995990883	0.0	0.8287737592416765	-0.6781462698053448	0.0	0.8238655817761668	-0.7814057329775705	0.0	0.8478775579689973	-0.8048783883528309	0.0	0.8345040576804371	-0.8067488205475318	0.0	0.8169342184867175	-0.796134260153695	0.0	0.8634730064321263	-0.5725209082925514	0.0	0.8731609008972988	-0.6725394513412468	0.0	0.8291515152325614	-0.7362496184309633	0.0	0.8482672758710432	-0.7795225396076463	0.0	0.85199063547194	-0.7704969881713187	0.0	0.816337113704719	-0.7476578710240468	0.0	0.8302359063425212	-0.4187937004434216	0.0	0.829060727907463	-0.35047064194729505	0.0	0.8340181107207736	-0.38985736988421194	0.0	0.790921841542824	-0.4503176552116451	0.0	0.7774775180133128	-0.51805490031335	0.0	0.7789229164555168	-0.5857751820973556	0.0	0.8672886022294789	-0.43189328911607305	0.0	0.8796412497758106	-0.49799213755664673	0.0	0.9037913545708757	-0.5538113829137264	0.0
126	4.226582278481012	0.8442031617642486	-0.5733828019497924	0.0	0.823558127093183	-0.5762675668652214	0.0	0.8294022524595722	-0.6775090066476742	0.0	0.8236826998521488	-0.7800252460362681	0.0	0.848414800262888	-0.8034729190780789	0.0	0.8350455170188709	-0.8052078388700503	0.0	0.8169363302718633	-0.7941295084944368	0.0	0.8653722221738714	-0.5718495420983752	0.0	0.878029741360941	-0.6710322927138125	0.0	0.8402324236194245	-0.7402554675576932	0.0	0.86118435868449	-0.7796746041668265	0.0	0.8653846886414461	-0.7714782054548628	0.0	0.8289592334976557	-0.7527947096655299	0.0	0.8316420885206819	-0.417055601440291	0.0	0.8301295025297504	-0.34838153564126345	0.0	0.834830176402396	-0.38863271905810426	0.0	0.792029881531518	-0.4488000119882229	0.0	0.7793711331388217	-0.5166605171049471	0.0	0.7832513311495142	-0.5845091828642258	0.0	0.8688091242677477	-0.43041111593827863	0.0	0.8839076569346506	-0.4956344012612522	0.0	0.9132174379631748	-0.5498412694724323	0.0
127	4.260126582278481	0.8454878272738601	-0.5738998387770068	0.0	0.8247659369324432	-0.5767410402425598	0.0	0.8298220420658426	-0.6777480170679678	0.0	0.823571301678345	-0.7797434612712847	0.0	0.8486997013894363	-0.802909771192602	0.0	0.8351661090944618	-0.804632634386263	0.0	0.8170810935810654	-0.7933017401922824	0.0	0.867262857214892	-0.5720454318895885	0.0	0.8829395231164967	-0.6699246121734523	0.0	0.8515415279673841	-0.746084015398645	0.0	0.8741024882396089	-0.7810473223036889	0.0	0.87860870936435	-0.7737738178346454	0.0	0.8415545596257835	-0.7597469996649888	0.0	0.8331557200276664	-0.41648995886514795	0.0	0.8314251699020888	-0.3475002184203184	0.0	0.8358863099751134	-0.38853799528669875	0.0	0.7934132620430121	-0.44819218300790953	0.0	0.7816477248672249	-0.5162958973598496	0.0	0.7880395323600842	-0.5839494256405764	0.0	0.8703414011372892	-0.4300656170186837	0.0	0.8879834667719345	-0.49417542515364987	0.0	0.9218388655041042	-0.5465706249400141	0.0
128	4.293670886075949	0.8468223623676483	-0.5751969169889625	0.0	0.8257937968258121	-0.5780274785298523	0.0	0.8301608828409156	-0.678812462925407	0.0	0.8235360825230466	-0.7805942354986771	0.0	0.8488610370836746	-0.803428242260931	0.0	0.8348940792116167	-0.8053078061511406	0.0	0.8172701517925476	-0.7938008709456987	0.0	0.8690580442267147	-0.5730841944845123	0.0	0.8879108143848368	-0.6691344939213286	0.0	0.8628996427695645	-0.7527865891347929	0.0	0.8868867420724001	-0.7832980584342523	0.0	0.8913464781483009	-0.7768978481300055	0.0	0.8538754394965855	-0.7675430078995371	0.0	0.8347407606988296	-0.41712317781390434	0.0	0.8330347932349176	-0.34799361241126003	0.0	0.8372466069638929	-0.3895626478699869	0.0	0.794944381619609	-0.4486720757727987	0.0	0.7842675668533601	-0.5170965780131874	0.0	0.7932862244524712	-0.5840359567624562	0.0	0.8718810168323223	-0.4309037246481721	0.0	0.8917950571611657	-0.4937249381255813	0.0	0.9292307947048969	-0.544101880561553	0.0
129	4.327215189873417	0.8481678401926735	-0.5771190309086783	0.0	0.8265933273628274	-0.5801047896200214	0.0	0.8305063108323355	-0.6806469442137262	0.0	0.8235587917914057	-0.7825150674001576	0.0	0.8489402200500054	-0.8051111105093965	0.0	0.8341893093744804	-0.8073067589845442	0.0	0.8174583762942816	-0.7955639678148484	0.0	0.870715002976519	-0.5749715616896303	0.0	0.8928917916613999	-0.6686598947629249	0.0	0.8741805890586444	-0.759458800450632	0.0	0.8995513445502935	-0.7861201766599293	0.0	0.9035591587084141	-0.7804686706951894	0.0	0.8658665051155063	-0.7752732274339329	0.0	0.8363836856180734	-0.4188489724692306	0.0	0.8350362748337441	-0.3499056418811963	0.0	0.8389682537096379	-0.3916357470600866	0.0	0.7965436840141754	-0.45027712249473345	0.0	0.787170761119985	-0.5190806037587943	0.0	0.7989251138985178	-0.5846482279557899	0.0	0.8734585537117571	-0.43283833274773387	0.0	0.8952737561663754	-0.49437880293134245	0.0	0.935200927605964	-0.5426347580192223	0.0
130	4.360759493670886	0.8495144983022318	-0.579529687443848	0.0	0.8272114098529653	-0.5829198767837851	0.0	0.8308803721371539	-0.6831819882247688	0.0	0.8236421556339909	-0.7852913188825537	0.0	0.8489060840606062	-0.807816513570301	0.0	0.8330295112220415	-0.810414261202016	0.0	0.8176707670361267	-0.7983344432621223	0.0	0.872274317521095	-0.5776706420014469	0.0	0.8977739587461273	-0.6685582708113844	0.0	0.8852228272146666	-0.7654168030963518	0.0	0.9120098591755469	-0.7892355019140049	0.0	0.9152350566950851	-0.7841949064269069	0.0	0.8774588866818701	-0.7822687399396534	0.0	0.8381045252622559	-0.4214800901623364	0.0	0.8374474889095386	-0.3530774436714509	0.0	0.841087854739103	-0.3946621292072518	0.0	0.7982365681707644	-0.4528182708440223	0.0	0.790259211757379	-0.5220865584675142	0.0	0.8047746639227809	-0.5856597942985888	0.0	0.8751219465878677	-0.4356581377529069	0.0	0.8983695676264863	-0.49617112297670835	0.0	0.9397333144608611	-0.5424022202162541	0.0
